<?xml version="1.0" standalone="no"?>
<!DOCTYPE svg PUBLIC "-//W3C//DTD SVG 20010904//EN"
 "http://www.w3.org/TR/2001/REC-SVG-20010904/DTD/svg10.dtd">
<svg version="1.0" xmlns="http://www.w3.org/2000/svg"
 width="183.000000pt" height="183.000000pt" viewBox="0 0 183.000000 183.000000"
 preserveAspectRatio="xMidYMid meet">
<metadata>
Created by potrace 1.11, written by Peter Selinger 2001-2013
</metadata>
<g transform="translate(0.000000,183.000000) scale(0.100000,-0.100000)"
fill="#000000" stroke="none">
<path d="M805 1683 c-38 -10 -102 -62 -119 -97 -25 -52 -21 -126 9 -170 23
-34 24 -40 13 -81 -18 -69 3 -121 65 -160 47 -30 47 -30 42 -75 -49 -437 -70
-854 -44 -871 22 -14 39 -11 39 7 0 9 8 26 19 39 l18 24 26 -27 c17 -18 27
-41 29 -67 3 -43 18 -52 64 -41 21 6 24 12 24 56 0 44 3 50 21 50 41 0 59 18
59 60 0 21 5 42 10 45 15 9 12 49 -6 95 -13 31 -14 44 -5 53 17 17 14 137 -5
158 -13 14 -16 42 -15 146 1 195 5 283 13 283 5 0 18 11 29 24 17 19 28 24 50
19 37 -7 49 19 24 47 -15 16 -16 25 -7 43 20 41 23 64 13 108 -14 61 -43 83
-101 75 -25 -3 -46 -11 -48 -16 -5 -15 -32 -12 -32 4 0 7 7 33 15 56 13 38 13
48 0 93 -8 28 -21 60 -29 72 -28 43 -105 64 -171 48z m78 -787 c6 -15 -1 -26
-15 -26 -4 0 -8 9 -8 20 0 23 15 27 23 6z m27 -91 c0 -8 -7 -15 -15 -15 -16 0
-20 12 -8 23 11 12 23 8 23 -8z m-35 -110 c0 -10 -6 -20 -12 -22 -8 -3 -13 5
-13 22 0 17 5 25 13 23 6 -3 12 -13 12 -23z m-15 -219 c0 -3 -4 -8 -10 -11 -5
-3 -10 -1 -10 4 0 6 5 11 10 11 6 0 10 -2 10 -4z"/>
</g>
</svg>
